<svg width="88" height="87" viewBox="0 0 88 87" fill="none" xmlns="http://www.w3.org/2000/svg">
<path d="M44.3921 0C68.4257 0.0137695 87.9257 19.5291 87.8823 43.5322C87.8415 67.5792 68.2949 87.0845 44.3237 87C20.2845 86.9128 0.90161 67.5144 0.882324 43.5166C0.863252 19.505 20.3773 -0.0136244 44.3921 0ZM44.3804 60.9785C42.0165 60.9787 40.1001 62.9018 40.1001 65.2656C40.1001 67.6295 42.0165 69.5536 44.3804 69.5537C46.7444 69.5537 48.6606 67.6296 48.6606 65.2656C48.6606 62.9017 46.7443 60.9785 44.3804 60.9785ZM47.2153 17.6328C39.6601 16.4258 32.3007 20.2294 28.9849 27.0742C28.0048 29.0964 27.4299 31.2168 27.3052 33.4814C27.2751 34.0315 27.7259 34.4775 28.2769 34.4775H34.9438C35.4961 34.4775 35.9438 34.6324 35.9438 34.0801V33.416C35.9439 31.1981 37.9858 26.1641 45.0854 26.1641C48.5453 26.1642 50.7786 27.45 52.0591 30.7061C53.2796 33.8069 52.5368 37.2951 50.0874 39.3877C48.33 40.8891 46.5318 42.3442 44.8452 43.9219C41.4385 47.1085 39.7486 50.9756 40.0552 55.6201C40.0887 56.1258 40.5191 56.5057 41.0259 56.5059H47.7173C48.2693 56.5057 48.729 56.0579 48.73 55.5059C48.7303 55.3103 48.7259 55.1182 48.7114 54.9277C48.5807 53.2439 49.2535 51.8761 50.3677 50.6963C50.9044 50.1295 51.5016 49.6195 52.0874 49.1045C53.6922 47.6903 55.395 46.3714 56.8989 44.8564C60.2829 41.4504 61.9945 37.4036 61.3706 32.4961C60.4114 24.9293 54.6289 18.8181 47.2153 17.6328Z" fill="#4A4F54"/>
</svg>
