<svg width="85" height="87" viewBox="0 0 85 87" fill="none" xmlns="http://www.w3.org/2000/svg">
<path d="M69.4334 86.9983H52.9413C51.3993 86.2574 50.9672 84.9796 50.9787 83.2856C51.0348 75.9876 51.0034 68.6879 51.0018 61.3882C51.0018 59.9659 50.855 59.813 49.5093 59.813C44.649 59.813 39.7888 59.813 34.9286 59.813C33.5795 59.813 33.4394 59.9608 33.4394 61.3882C33.4394 68.715 33.4097 76.0436 33.4608 83.3705C33.4723 85.0408 32.999 86.2727 31.4999 87H15.0078C11.5197 85.7052 10.5549 84.283 10.5549 80.4394C10.5549 69.6785 10.5549 58.9192 10.5549 48.1583V47.1082C8.4357 47.1082 6.43521 47.1184 4.43307 47.1048C2.65193 47.0929 1.34081 46.2467 0.493114 44.6427C0.300156 44.2774 0.163272 43.8815 0 43.4991C0 42.9333 0 42.3658 0 41.8C0.338088 40.602 0.999421 39.642 1.87845 38.7754C14.4718 26.3697 27.0454 13.9418 39.6354 1.53267C40.2176 0.95834 40.9169 0.508056 41.5617 0C42.0021 0 42.4408 0 42.8811 0C43.488 0.467276 44.1477 0.87678 44.6919 1.41202C57.1418 13.6835 69.5752 25.9737 82.0267 38.2453C83.0723 39.275 84.0552 40.3132 84.4412 41.8V43.4991C84.3818 43.6198 84.3076 43.7336 84.2663 43.8611C83.577 45.9358 82.0696 47.0725 79.9273 47.1065C78.8009 47.1235 77.6728 47.1099 76.5464 47.1116C75.6756 47.1116 74.8065 47.1116 73.8862 47.1116C73.8862 47.5687 73.8862 47.9068 73.8862 48.2433C73.8862 59.2591 73.8895 70.2732 73.8846 81.289C73.8846 84.1419 72.392 86.1249 69.7302 86.8623C69.6263 86.8912 69.5323 86.9541 69.4334 87V86.9983Z" fill="#4A4F54"/>
</svg>
