<svg width="85" height="87" viewBox="0 0 85 87" fill="none" xmlns="http://www.w3.org/2000/svg">
<path d="M77.2413 19.1214C81.9283 26.371 84.4412 34.8325 84.4412 43.5001C84.441 52.9887 81.4197 62.2478 75.8211 69.9313C70.3273 77.4726 62.6646 83.1902 53.8481 86.3062L52.1798 86.8973C51.2569 87.2248 50.2386 86.743 49.9093 85.8227L48.718 82.4849C48.3906 81.5658 48.8749 80.5524 49.7992 80.2261L51.4827 79.6307C58.9305 76.9932 65.4202 72.1602 70.0608 65.7876C74.7883 59.3077 77.3296 51.5007 77.3298 43.5001C77.3298 36.7216 75.4983 30.0862 72.0658 24.2752L77.2413 19.1214Z" fill="#4A4F54"/>
<path d="M77.5326 4.84188C78.4007 4.13688 79.6825 4.18659 80.4916 4.99233C81.3006 5.79809 81.3506 7.07456 80.6427 7.93892L80.4916 8.10441L5.94811 82.3366C5.08508 83.1959 3.68601 83.1959 2.82298 82.3366C1.95996 81.4772 1.96007 80.084 2.82298 79.2245L77.3664 4.99233L77.5326 4.84188Z" fill="#4A4F54"/>
<path d="M42.6663 77.1333C42.666 80.0631 40.9756 80.7609 38.8937 78.6894L28.1586 67.997L42.6663 53.552V77.1333Z" fill="#4A4F54"/>
<path d="M66.3465 29.9707C68.8495 34.0322 70.2042 38.7121 70.2205 43.5001C70.2029 48.6517 68.6373 53.6621 65.7573 57.9278C62.8422 62.1936 58.8964 65.6469 54.256 67.9669L52.6783 68.7599C51.8021 69.2001 50.7326 68.8499 50.2913 67.9776L48.6921 64.8204C48.2509 63.9476 48.6034 62.8828 49.4798 62.4434L51.0748 61.646C54.6127 59.8756 57.6346 57.2204 59.8739 53.9625C61.9545 50.8655 63.0915 47.235 63.1091 43.5001C63.0955 40.5966 62.4011 37.7479 61.1171 35.1761L66.3465 29.9707Z" fill="#4A4F54"/>
<path d="M38.8937 8.30644C40.9758 6.23313 42.6663 6.93207 42.6663 9.86248V31.7653L13.1092 61.2011H5.33301C2.38957 61.2007 0.000784936 58.8214 0 55.8904V31.1055C0.000185246 28.1753 2.3892 25.7951 5.33301 25.7947H19.5558C20.5369 25.7946 21.8971 25.2352 22.5903 24.5439L38.8937 8.30644Z" fill="#4A4F54"/>
<path d="M50.2935 19.0053C50.7332 18.1324 51.8018 17.7822 52.6783 18.223L54.256 19.016C54.5234 19.1497 54.7876 19.2897 55.0502 19.4308L49.7626 24.6965L49.4798 24.5568C48.6038 24.1175 48.2496 23.0524 48.6899 22.1797L50.2935 19.0053Z" fill="#4A4F54"/>
<path d="M49.9093 1.17745C50.2384 0.256684 51.2566 -0.224871 52.1798 0.102834L53.8481 0.693871C58.5369 2.35107 62.8949 4.74482 66.7781 7.75194L61.7063 12.8026C58.6037 10.5089 55.16 8.66952 51.4827 7.36723L49.7992 6.77404C48.875 6.44792 48.3912 5.43421 48.718 4.5152L49.9093 1.17745Z" fill="#4A4F54"/>
</svg>
