<svg width="85" height="87" viewBox="0 0 85 87" fill="none" xmlns="http://www.w3.org/2000/svg">
<path d="M77.7708 43.5C77.7708 35.4989 75.2285 27.6921 70.5006 21.212C65.86 14.8392 59.3717 10.0064 51.9239 7.36881L50.2392 6.77431C49.3146 6.44806 48.8312 5.43451 49.1588 4.51521L50.3498 1.1773C50.6789 0.25655 51.6967 -0.224851 52.6199 0.102849L54.2885 0.694451C63.1051 3.81051 70.767 9.51047 76.2608 17.0519C81.8595 24.7355 84.8823 33.9938 84.8823 43.5C84.8823 52.9888 81.8595 62.2471 76.2608 69.9306C70.767 77.4721 63.1051 83.1895 54.2885 86.3055L52.6199 86.8971C51.6967 87.2248 50.6789 86.7434 50.3498 85.8227L49.1588 82.4848C48.8312 81.5655 49.3146 80.5519 50.2392 80.2257L51.9239 79.6312C59.3717 76.9936 65.86 72.1607 70.5006 65.788C75.2285 59.3079 77.7708 51.5011 77.7708 43.5Z" fill="#4A4F54"/>
<path d="M0.441162 55.8895C0.441162 58.8214 2.8306 61.2008 5.7748 61.2008H19.9964C20.9778 61.2008 22.3377 61.762 23.0308 62.4522L39.3346 78.6893C41.4168 80.7614 43.1059 80.0639 43.1059 77.1335V9.86201C43.1059 6.93156 41.4168 6.23411 39.3346 8.30761L23.0308 24.5433C22.3377 25.2349 20.9778 25.7946 19.9964 25.7946H5.7748C2.8306 25.7946 0.441162 28.1756 0.441162 31.106V55.8895Z" fill="#4A4F54"/>
<path d="M49.9203 24.5577L51.5147 25.3552C55.053 27.1256 58.0744 29.7632 60.3138 33.0387C62.3946 36.1185 63.5318 39.7653 63.5492 43.5005C63.5318 47.2357 62.3946 50.8651 60.3138 53.9623C58.0744 57.2204 55.053 59.8754 51.5147 61.6458L49.9203 62.4433C49.0437 62.8827 48.6914 63.947 49.1325 64.8199L50.7328 67.978C51.174 68.8509 52.2427 69.2004 53.1193 68.7596L54.6962 67.9664C59.3368 65.6464 63.2828 62.1939 66.1978 57.928C69.078 53.6621 70.6433 48.6524 70.6607 43.5005C70.6433 38.3486 69.078 33.3215 66.1978 29.0556C63.2828 24.7882 59.3368 21.3372 54.6962 19.0172L53.1193 18.2226C52.2427 17.7818 51.174 18.1327 50.7342 19.0056L49.1311 22.1797C48.6899 23.0526 49.0437 24.1183 49.9203 24.5577Z" fill="#4A4F54"/>
</svg>
