<svg width="320" height="422" viewBox="0 0 320 422" fill="none" xmlns="http://www.w3.org/2000/svg">
<g clip-path="url(#clip0_803_3444)">
<mask id="path-2-inside-1_803_3444" fill="white">
<path d="M269.72 0.00488281C297.334 0.00512148 319.72 22.3908 319.72 50.0049V370.797C319.72 398.411 297.334 420.797 269.72 420.797H50.2812C22.667 420.797 0.28125 398.411 0.28125 370.797V50.0049C0.281267 22.3907 22.667 0.00488281 50.2812 0.00488281H269.72Z"/>
</mask>
<path d="M269.72 0.00488281C297.334 0.00512148 319.72 22.3908 319.72 50.0049V370.797C319.72 398.411 297.334 420.797 269.72 420.797H50.2812C22.667 420.797 0.28125 398.411 0.28125 370.797V50.0049C0.281267 22.3907 22.667 0.00488281 50.2812 0.00488281H269.72Z" fill="#EBF7FD"/>
<path d="M269.72 0.00488281L269.72 -5.31909H269.72V0.00488281ZM319.72 50.0049H325.044H319.72ZM269.72 420.797V426.121H269.72L269.72 420.797ZM0.28125 50.0049L-5.04272 50.0049V50.0049H0.28125ZM269.72 0.00488281L269.72 5.32886C294.393 5.32907 314.396 25.3312 314.396 50.0049H319.72H325.044C325.044 19.4504 300.274 -5.31883 269.72 -5.31909L269.72 0.00488281ZM319.72 50.0049H314.396V370.797H319.72H325.044V50.0049H319.72ZM319.72 370.797H314.396C314.396 395.471 294.393 415.473 269.72 415.473L269.72 420.797L269.72 426.121C300.274 426.121 325.044 401.351 325.044 370.797H319.72ZM269.72 420.797V415.473H50.2812V420.797V426.121H269.72V420.797ZM50.2812 420.797V415.473C25.6074 415.473 5.60522 395.471 5.60522 370.797H0.28125H-5.04272C-5.04272 401.351 19.7267 426.121 50.2812 426.121V420.797ZM0.28125 370.797H5.60522V50.0049H0.28125H-5.04272V370.797H0.28125ZM0.28125 50.0049L5.60522 50.0049C5.60524 25.331 25.6074 5.32886 50.2812 5.32886V0.00488281V-5.31909C19.7267 -5.31909 -5.0427 19.4503 -5.04272 50.0049L0.28125 50.0049ZM50.2812 0.00488281V5.32886H269.72V0.00488281V-5.31909H50.2812V0.00488281Z" fill="url(#paint0_linear_803_3444)" mask="url(#path-2-inside-1_803_3444)"/>
<path d="M41.6484 221.006H48.0456V227.403H41.6484V221.006ZM41.6484 233.8H48.0456V240.197H54.4427V246.594H60.8398V252.992H54.4427V259.389H60.8398V252.992H67.2369V259.389H92.8254V265.786H80.0312V272.183H92.8254V265.786H112.017V272.183H99.2226V278.58H112.017V284.977H124.811V291.374H118.414V297.771H131.208V304.169H112.017V297.771H105.62V291.374H99.2226V284.977H86.4283V278.58H80.0312V284.977H67.2369V304.169H73.6341V310.566H67.2369V316.963H80.0312V323.36H92.8254V329.757H99.2226V342.551H105.62V348.948H92.8254V342.551H54.4427V336.154H60.8398V329.757H54.4427V323.36H60.8398V316.963H54.4427V304.169H60.8398V291.374H48.0456V284.977H60.8398V278.58H67.2369V272.183H73.6341V265.786H67.2369V272.183H60.8398V278.58H54.4427V272.183H48.0456V259.389H41.6484V233.8ZM41.6484 272.183H48.0456V278.58H41.6484V272.183ZM41.6484 316.963H54.4427V323.36H48.0456V342.551H41.6484V316.963ZM48.0456 227.403H54.4427V208.212H73.6341V214.609H67.2369V221.006H92.8254V227.403H73.6341V233.8H99.2226V214.609H92.8254V189.02H99.2226V208.212H118.414V214.609H112.017V221.006H105.62V233.8H112.017V240.197H92.8254V252.992H80.0312V246.594H86.4283V240.197H80.0312V246.594H73.6341V252.992H67.2369V233.8H48.0456V227.403ZM67.2369 323.36V336.154H73.6341V323.36H67.2369ZM73.6341 291.374H80.0312V297.771H86.4283V291.374H92.8254V304.169H73.6341V291.374ZM80.0312 329.757V336.154H86.4283V329.757H80.0312ZM80.0312 208.212H86.4283V214.609H80.0312V208.212ZM80.0312 284.977H86.4283V291.374H80.0312V284.977ZM80.0312 310.566H86.4283V316.963H80.0312V310.566ZM92.8254 157.035H99.2226V169.829H105.62V163.432H118.414V182.623H105.62V189.02H99.2226V176.226H92.8254V157.035ZM92.8254 252.992H99.2226V259.389H92.8254V252.992ZM92.8254 304.169H99.2226V310.566H92.8254V304.169ZM92.8254 361.743H99.2226V355.346H105.62V348.948H112.017V355.346H118.414V361.743H124.811V368.14H131.208V374.537H99.2226V380.934H92.8254V361.743ZM99.2226 310.566H105.62V316.963H99.2226V310.566ZM99.2226 323.36H112.017V316.963H118.414V329.757H99.2226V323.36ZM99.2226 380.934H105.62V393.728H99.2226V380.934ZM105.62 189.02H118.414V182.623H124.811V201.815H131.208V195.417H137.605V208.212H131.208V214.609H144.002V208.212H156.797V214.609H150.4V233.8H137.605V240.197H131.208V227.403H144.002V221.006H118.414V214.609H124.811V208.212H118.414V195.417H112.017V201.815H105.62V189.02ZM105.62 246.594H118.414V252.992H112.017V259.389H105.62V246.594ZM105.62 304.169H112.017V310.566H105.62V304.169ZM105.62 336.154H131.208V342.551H124.811V348.948H112.017V342.551H105.62V336.154ZM112.017 221.006H118.414V227.403H112.017V221.006ZM112.017 259.389H118.414V265.786H112.017V259.389ZM112.017 387.331H124.811V393.728H112.017V387.331ZM118.414 157.035H124.811V163.432H118.414V157.035ZM118.414 227.403H124.811V240.197H131.208V252.992H124.811V246.594H118.414V227.403ZM118.414 252.992H124.811V259.389H118.414V252.992ZM118.414 265.786H124.811V259.389H131.208V265.786H137.605V284.977H144.002V291.374H150.4V297.771H144.002V304.169H137.605V291.374H131.208V278.58H124.811V272.183H118.414V265.786ZM118.414 310.566H131.208V304.169H137.605V310.566H144.002V316.963H137.605V323.36H144.002V316.963H150.4V323.36H156.797V310.566H163.194V348.948H156.797V336.154H150.4V348.948H156.797V355.346H150.4V361.743H144.002V355.346H131.208V361.743H124.811V348.948H144.002V336.154H137.605V329.757H131.208V316.963H118.414V310.566ZM124.811 176.226H131.208V182.623H124.811V176.226ZM124.811 380.934H131.208V374.537H137.605V387.331H124.811V380.934ZM131.208 157.035H150.4V163.432H144.002V176.226H137.605V163.432H131.208V157.035ZM131.208 182.623H137.605V189.02H131.208V182.623ZM131.208 252.992H144.002V246.594H137.605V240.197H156.797V233.8H163.194V227.403H156.797V214.609H163.194V208.212H169.591V195.417H163.194V208.212H156.797V195.417H150.4V189.02H169.591V163.432H175.988V169.829H182.385V176.226H175.988V182.623H188.782V189.02H182.385V195.417H175.988V201.815H182.385V208.212H175.988V214.609H182.385V221.006H169.591V227.403H182.385V221.006H188.782V208.212H195.179V227.403H188.782V233.8H195.179V227.403H201.577V233.8H207.974V227.403H201.577V214.609H227.165V221.006H214.371V240.197H201.577V246.594H195.179V252.992H188.782V240.197H175.988V233.8H169.591V240.197H175.988V252.992H169.591V246.594H163.194V259.389H156.797V246.594H150.4V259.389H144.002V265.786H137.605V259.389H131.208V252.992ZM131.208 361.743H144.002V374.537H137.605V368.14H131.208V361.743ZM137.605 189.02H144.002V195.417H137.605V189.02ZM144.002 176.226H150.4V169.829H156.797V182.623H150.4V189.02H144.002V176.226ZM144.002 195.417H150.4V201.815H144.002V195.417ZM144.002 272.183H150.4V278.58H156.797V291.374H150.4V284.977H144.002V272.183ZM144.002 387.331H150.4V393.728H144.002V387.331ZM150.4 265.786H156.797V272.183H150.4V265.786ZM150.4 304.169H156.797V310.566H150.4V304.169ZM150.4 374.537H163.194V380.934H156.797V387.331H150.4V374.537ZM156.797 163.432H163.194V169.829H156.797V163.432ZM156.797 272.183H163.194V278.58H156.797V272.183ZM156.797 297.771H163.194V304.169H156.797V297.771ZM156.797 361.743H163.194V348.948H169.591V304.169H175.988V323.36H182.385V329.757H175.988V342.551H188.782V336.154H182.385V329.757H188.782V323.36H207.974V329.757H195.179V342.551H201.577V348.948H188.782V355.346H182.385V361.743H175.988V355.346H169.591V361.743H175.988V368.14H182.385V361.743H188.782V387.331H182.385V380.934H175.988V374.537H163.194V368.14H156.797V361.743ZM156.797 387.331H163.194V380.934H169.591V387.331H182.385V393.728H156.797V387.331ZM163.194 259.389H175.988V252.992H182.385V259.389H195.179V265.786H188.782V272.183H175.988V284.977H182.385V291.374H195.179V284.977H188.782V272.183H195.179V278.58H201.577V284.977H207.974V278.58H214.371V272.183H220.768V278.58H233.562V284.977H246.356V278.58H252.754V284.977H265.548V278.58H252.754V272.183H259.151V259.389H271.945V246.594H278.342V265.786H265.548V272.183H278.342V291.374H271.945V297.771H278.342V304.169H271.945V316.963H265.548V323.36H259.151V316.963H246.356V329.757H233.562V316.963H239.959V304.169H246.356V310.566H265.548V304.169H259.151V291.374H246.356V297.771H239.959V291.374H227.165V284.977H214.371V291.374H207.974V297.771H220.768V304.169H207.974V310.566H201.577V297.771H188.782V304.169H175.988V291.374H169.591V284.977H163.194V278.58H169.591V265.786H163.194V259.389ZM182.385 157.035H207.974V163.432H182.385V157.035ZM182.385 195.417H188.782V201.815H182.385V195.417ZM182.385 310.566H201.577V316.963H188.782V323.36H182.385V310.566ZM188.782 189.02H195.179V195.417H188.782V189.02ZM195.179 176.226H214.371V169.829H207.974V163.432H220.768V169.829H227.165V176.226H220.768V182.623H195.179V176.226ZM195.179 195.417H201.577V201.815H195.179V195.417ZM195.179 368.14H201.577V361.743H220.768V342.551H201.577V336.154H214.371V316.963H220.768V323.36H227.165V329.757H220.768V336.154H227.165V329.757H233.562V336.154H252.754V348.948H259.151V355.346H252.754V374.537H246.356V393.728H227.165V387.331H233.562V380.934H239.959V374.537H233.562V368.14H227.165V374.537H233.562V380.934H227.165V387.331H214.371V380.934H201.577V374.537H195.179V368.14ZM195.179 380.934H201.577V387.331H214.371V393.728H195.179V380.934ZM201.577 259.389H207.974V246.594H220.768V240.197H227.165V233.8H233.562V214.609H227.165V208.212H246.356V214.609H239.959V233.8H252.754V240.197H246.356V246.594H252.754V240.197H259.151V233.8H265.548V246.594H259.151V252.992H239.959V240.197H233.562V259.389H239.959V265.786H227.165V272.183H220.768V259.389H227.165V252.992H220.768V259.389H214.371V272.183H201.577V259.389ZM201.577 348.948H207.974V355.346H201.577V348.948ZM207.974 368.14V374.537H220.768V368.14H207.974ZM207.974 195.417H214.371V208.212H207.974V195.417ZM207.974 310.566H214.371V316.963H207.974V310.566ZM214.371 189.02H227.165V208.212H220.768V195.417H214.371V189.02ZM220.768 157.035H227.165V163.432H220.768V157.035ZM220.768 227.403H227.165V233.8H220.768V227.403ZM220.768 310.566H233.562V316.963H220.768V310.566ZM227.165 342.551V361.743H246.356V342.551H227.165ZM227.165 297.771H233.562V304.169H227.165V297.771ZM233.562 272.183H246.356V278.58H233.562V272.183ZM233.562 348.948H239.959V355.346H233.562V348.948ZM246.356 221.006H252.754V214.609H259.151V221.006H278.342V227.403H271.945V233.8H265.548V227.403H259.151V233.8H252.754V227.403H246.356V221.006ZM246.356 259.389H252.754V265.786H246.356V259.389ZM259.151 208.212H278.342V214.609H259.151V208.212ZM259.151 336.154H265.548V342.551H259.151V336.154ZM259.151 361.743H265.548V374.537H259.151V361.743ZM265.548 323.36H278.342V342.551H271.945V336.154H265.548V323.36ZM265.548 342.551H271.945V348.948H278.342V361.743H265.548V342.551ZM271.945 233.8H278.342V240.197H271.945V233.8Z" fill="#2824B4"/>
<path d="M253.809 387.495C255.117 387.472 255.329 386.187 255.329 385.426C255.329 384.299 254.754 383.905 254.057 383.834C253.195 384.216 252.564 384.865 252.487 385.868C252.475 386.033 252.471 386.254 252.484 386.511C252.519 387.197 253.021 387.509 253.809 387.495ZM260.574 389.058C259.638 389.058 258.655 388.483 258.609 387.406C257.545 388.532 255.904 389.069 253.809 389.069C251.697 389.069 250.814 387.628 250.814 386.506C250.868 382.766 250.782 381.365 250.765 381.077C250.763 381.052 250.762 381.035 250.762 381.026L250.762 381.017C250.756 380.874 250.748 380.662 250.613 380.647C250.529 380.638 250.475 380.664 250.378 380.784C250.233 380.977 249.941 381.053 249.763 380.95C249.548 380.826 249.508 380.551 249.617 380.299C249.919 379.625 250.402 379.327 251.054 379.337C252.181 379.353 252.504 380.088 252.504 381.007C252.504 381.007 252.479 382.331 252.479 383.077C252.877 382.752 253.463 382.404 254.44 382.404C256.476 382.404 257.769 384.925 256.441 387.336C258.143 386.551 258.499 385.199 258.565 383.856L258.558 383.403C258.558 382.895 258.886 382.464 259.397 382.464C259.907 382.464 260.246 382.924 260.228 383.409C260.167 385.043 260.142 386.119 260.142 386.688C260.142 387.018 260.322 387.522 260.853 387.522C261.895 387.522 262.238 386.706 262.318 384.788C262.323 384.072 262.326 383.474 262.326 383.474C261.854 383.474 261.622 383.226 261.622 382.916C261.622 382.606 261.868 382.32 262.272 382.32C262.272 382.32 262.273 381.242 262.273 380.796C262.273 380.287 262.667 379.866 263.177 379.866C263.688 379.866 264.093 380.287 264.093 380.796C264.093 380.964 264.087 381.161 264.08 381.378C264.07 381.656 264.06 381.967 264.061 382.297L264.135 382.297C264.273 382.296 264.586 382.295 265.003 382.29C265.499 382.284 265.701 382.562 265.701 382.909C265.701 383.256 265.434 383.498 265.086 383.499C264.763 383.501 264.05 383.497 264.05 383.497C264.017 384.525 263.986 385.764 263.986 386.756C263.986 387.114 264.233 387.522 264.831 387.522C266.036 387.522 266.486 386.452 266.577 384.419C266.57 383.004 266.553 382.184 266.54 381.566C266.531 381.133 266.524 380.799 266.524 380.429C266.524 379.921 266.947 379.466 267.458 379.466C267.968 379.466 268.344 379.874 268.344 380.382C268.344 380.774 268.329 381.232 268.307 381.856C268.271 382.912 268.218 384.444 268.198 386.938C268.195 387.27 268.357 387.504 268.787 387.504C269.937 387.504 270.255 386.259 270.356 384.52C270.357 384.437 270.358 384.355 270.359 384.274C270.36 384.109 270.361 383.95 270.361 383.795C270.361 383.287 270.7 382.875 271.211 382.875C271.721 382.875 272.021 383.297 272.021 383.805C272.021 384.167 272.009 384.506 271.997 384.855C271.986 385.164 271.975 385.481 271.972 385.829C271.963 386.727 272.269 387.517 273.016 387.515C273.733 387.513 274.52 387.211 274.54 385.674C274.545 385.247 274.539 384.919 274.533 384.587C274.528 384.342 274.524 384.095 274.524 383.805C274.524 383.297 274.878 382.875 275.388 382.875C275.898 382.875 276.253 383.297 276.253 383.805C276.253 384.109 276.242 384.411 276.23 384.747C276.214 385.164 276.197 385.632 276.197 386.216C276.197 386.216 276.166 388.345 276.241 388.816C276.475 388.738 276.813 388.509 277.17 387.955C277.386 387.62 277.799 387.548 278.054 387.696C278.404 387.901 278.392 388.3 278.261 388.591C277.923 389.343 277.483 389.804 276.371 390.185C276.374 391.461 276.285 393.344 273.926 393.685C271.905 393.976 270.991 392.804 270.988 391.807C270.983 390.232 272.557 389.774 274.828 389.202L274.755 388.421C274.755 388.421 274.249 389.085 272.967 389.053C271.979 389.028 271.298 388.561 270.886 387.902C270.41 388.683 269.664 389.062 268.54 389.062C267.8 389.062 267.095 388.67 266.745 388.104C266.23 388.72 265.512 389.053 264.546 389.053C263.705 389.053 263.084 388.763 262.711 388.31C262.231 388.846 261.539 389.058 260.574 389.058ZM274.976 390.458C273.828 390.706 272.39 391.068 272.407 391.775C272.423 392.438 273.107 392.558 273.678 392.44C274.863 392.196 275.001 391.482 274.976 390.458ZM260.327 380.798C260.327 380.285 259.911 379.87 259.395 379.87C258.88 379.87 258.464 380.285 258.464 380.798C258.464 381.311 258.88 381.726 259.395 381.726C259.911 381.726 260.327 381.311 260.327 380.798Z" fill="#2824B4"/>
<path d="M41.6484 157.035H86.4283V201.815H41.6484V157.035ZM48.0456 163.432V195.417H80.0312V163.432H48.0456Z" fill="#2824B4"/>
<path d="M54.4402 169.826H73.6315V189.018H54.4402V169.826Z" fill="#2824B4"/>
<path d="M233.554 157.035H278.334V201.815H233.554V157.035ZM239.952 163.432V195.417H271.937V163.432H239.952Z" fill="#2824B4"/>
<path d="M246.36 169.826H265.551V189.018H246.36V169.826Z" fill="#2824B4"/>
<path d="M41.6484 348.941H86.4283V393.721H41.6484V348.941ZM48.0456 355.338V387.323H80.0312V355.338H48.0456Z" fill="#2824B4"/>
<path d="M54.4402 361.746H73.6315V380.938H54.4402V361.746Z" fill="#2824B4"/>
<path d="M0.273438 0H319.712V138.423H0.273438V0Z" fill="url(#paint1_linear_803_3444)"/>
<path d="M45.1262 89.1709V92.0522H33.2026V76.3572H45.0794V79.2385H36.3885V82.7758H44.4V85.6102H36.3885V89.1709H45.1262ZM46.5971 88.9601L49.7127 88.3276C49.8766 89.5223 50.9074 89.9205 52.1255 89.9205C53.2733 89.9205 53.9527 89.4052 53.9527 88.7493C53.9527 88.3276 53.6716 87.9059 52.6643 87.6951L50.2749 87.2032C48.1666 86.7581 46.9719 85.5634 46.9719 83.8768C46.9719 81.6279 48.7991 80.0116 51.7507 80.0116C54.5149 80.0116 56.4358 81.4405 56.834 83.4785L53.8824 84.0642C53.7653 83.1271 52.9454 82.4478 51.657 82.4478C50.4154 82.4478 50.0641 83.0569 50.0641 83.5956C50.0641 83.9705 50.2046 84.3687 51.1182 84.5795L53.9058 85.1886C55.9673 85.6337 56.9746 86.9221 56.9746 88.4916C56.9746 91.0684 54.8897 92.4036 51.8444 92.4036C49.2676 92.4036 46.9016 91.3963 46.5971 88.9601ZM64.2114 89.5691C65.5701 89.5691 66.6711 88.9132 67.2099 87.2969L70.0678 88.0231C69.4118 90.6936 66.999 92.4036 64.2114 92.4036C60.7913 92.4036 57.9568 89.8971 57.9568 86.2193C57.9568 82.5415 60.7913 80.0116 64.2114 80.0116C66.9287 80.0116 69.2947 81.6982 70.0678 84.3218L67.0927 85.1652C66.6711 83.5254 65.5701 82.846 64.2114 82.846C62.2671 82.846 60.9552 84.2281 60.9552 86.2193C60.9552 88.2339 62.2671 89.5691 64.2114 89.5691ZM83.7049 80.3629V92.0522H80.6127V91.1387C79.6288 91.9351 78.3404 92.4036 76.7475 92.4036C73.7725 92.4036 71.0083 89.8971 71.0083 86.2193C71.0083 82.5415 73.7725 80.0116 76.7475 80.0116C78.3404 80.0116 79.6288 80.4801 80.6127 81.3V80.3629H83.7049ZM77.2863 89.7097C78.9495 89.7097 80.6127 88.3744 80.6127 86.2193C80.6127 84.0642 78.9495 82.7055 77.2863 82.7055C75.4122 82.7055 74.0067 84.0642 74.0067 86.2193C74.0067 88.3744 75.4122 89.7097 77.2863 89.7097ZM93.2766 80.0116C96.0876 80.0116 97.9616 82.0261 97.9616 84.9309V92.0522H94.8695V85.5868C94.8695 83.947 93.9325 82.846 92.5035 82.846C90.7466 82.846 89.5988 84.0173 89.5988 86.8752V92.0522H86.5066V80.3629H89.5988V81.4171C90.5123 80.5035 91.7305 80.0116 93.2766 80.0116ZM111.507 85.985V87.0392H102.605C102.909 88.7258 104.104 89.7565 105.533 89.7565C106.447 89.7565 107.594 89.6394 108.438 88.2105L111.202 88.7961C110.171 91.2324 108.086 92.4036 105.533 92.4036C102.23 92.4036 99.5361 89.8971 99.5361 86.2193C99.5361 82.5415 102.23 80.0116 105.58 80.0116C108.695 80.0116 111.389 82.4244 111.507 85.985ZM105.58 82.7055C104.409 82.7055 103.073 83.4082 102.699 84.8606H108.344C107.946 83.3614 106.821 82.7055 105.58 82.7055ZM115.097 75.0219C116.175 75.0219 116.971 75.8887 116.971 76.8725C116.971 77.9033 116.175 78.6763 115.097 78.6763C113.996 78.6763 113.223 77.9033 113.223 76.8725C113.223 75.8887 113.996 75.0219 115.097 75.0219ZM116.643 92.0522H113.551V80.3629H116.643V92.0522ZM130.655 85.985V87.0392H121.753C122.058 88.7258 123.253 89.7565 124.682 89.7565C125.595 89.7565 126.743 89.6394 127.586 88.2105L130.35 88.7961C129.32 91.2324 127.235 92.4036 124.682 92.4036C121.379 92.4036 118.685 89.8971 118.685 86.2193C118.685 82.5415 121.379 80.0116 124.728 80.0116C127.844 80.0116 130.538 82.4244 130.655 85.985ZM124.728 82.7055C123.557 82.7055 122.222 83.4082 121.847 84.8606H127.493C127.094 83.3614 125.97 82.7055 124.728 82.7055ZM144.721 80.0116C147.696 80.0116 150.46 82.5415 150.46 86.2193C150.46 89.8971 147.696 92.4036 144.721 92.4036C143.128 92.4036 141.84 91.9351 140.856 91.1387V96.0346H137.764V80.3629H140.856V81.3C141.84 80.4801 143.128 80.0116 144.721 80.0116ZM144.182 89.7097C146.056 89.7097 147.462 88.3744 147.462 86.2193C147.462 84.0642 146.056 82.7055 144.182 82.7055C142.519 82.7055 140.856 84.0642 140.856 86.2193C140.856 88.3744 142.519 89.7097 144.182 89.7097ZM164.084 80.3629V92.0522H160.992V91.1387C160.008 91.9351 158.72 92.4036 157.127 92.4036C154.152 92.4036 151.388 89.8971 151.388 86.2193C151.388 82.5415 154.152 80.0116 157.127 80.0116C158.72 80.0116 160.008 80.4801 160.992 81.3V80.3629H164.084ZM157.666 89.7097C159.329 89.7097 160.992 88.3744 160.992 86.2193C160.992 84.0642 159.329 82.7055 157.666 82.7055C155.792 82.7055 154.386 84.0642 154.386 86.2193C154.386 88.3744 155.792 89.7097 157.666 89.7097ZM174.171 80.199C174.476 80.199 174.71 80.199 174.991 80.2927L174.827 83.2677H174.148C171.29 83.2677 169.978 85.0246 169.978 88.2807V92.0522H166.886V80.3629H169.978V82.4947C170.915 81.136 172.274 80.199 174.171 80.199ZM188.106 80.3629V92.0522H185.013V91.1387C184.03 91.9351 182.741 92.4036 181.148 92.4036C178.173 92.4036 175.409 89.8971 175.409 86.2193C175.409 82.5415 178.173 80.0116 181.148 80.0116C182.741 80.0116 184.03 80.4801 185.013 81.3V80.3629H188.106ZM181.687 89.7097C183.35 89.7097 185.013 88.3744 185.013 86.2193C185.013 84.0642 183.35 82.7055 181.687 82.7055C179.813 82.7055 178.407 84.0642 178.407 86.2193C178.407 88.3744 179.813 89.7097 181.687 89.7097ZM203.42 80.199C203.725 80.199 203.959 80.199 204.24 80.2927L204.076 83.2677H203.397C200.539 83.2677 199.227 85.0246 199.227 88.2807V92.0522H196.135V80.3629H199.227V82.4947C200.164 81.136 201.523 80.199 203.42 80.199ZM216.628 85.985V87.0392H207.727C208.031 88.7258 209.226 89.7565 210.655 89.7565C211.568 89.7565 212.716 89.6394 213.56 88.2105L216.324 88.7961C215.293 91.2324 213.208 92.4036 210.655 92.4036C207.352 92.4036 204.658 89.8971 204.658 86.2193C204.658 82.5415 207.352 80.0116 210.702 80.0116C213.817 80.0116 216.511 82.4244 216.628 85.985ZM210.702 82.7055C209.53 82.7055 208.195 83.4082 207.82 84.8606H213.466C213.068 83.3614 211.943 82.7055 210.702 82.7055ZM225.467 80.0116C228.442 80.0116 231.206 82.5415 231.206 86.2193C231.206 89.8971 228.442 92.4036 225.467 92.4036C223.874 92.4036 222.585 91.9351 221.601 91.1387V96.0346H218.509V80.3629H221.601V81.3C222.585 80.4801 223.874 80.0116 225.467 80.0116ZM224.928 89.7097C226.802 89.7097 228.207 88.3744 228.207 86.2193C228.207 84.0642 226.802 82.7055 224.928 82.7055C223.265 82.7055 221.601 84.0642 221.601 86.2193C221.601 88.3744 223.265 89.7097 224.928 89.7097ZM238.505 80.0818C241.925 80.0818 244.807 82.5415 244.807 86.2193C244.807 89.8971 241.925 92.3568 238.505 92.3568C235.015 92.3568 232.133 89.8971 232.133 86.2193C232.133 82.5415 235.015 80.0818 238.505 80.0818ZM238.505 89.7097C240.122 89.7097 241.808 88.3979 241.808 86.2193C241.808 84.0407 240.122 82.7289 238.505 82.7289C236.819 82.7289 235.132 84.0407 235.132 86.2193C235.132 88.3979 236.819 89.7097 238.505 89.7097ZM253.956 80.199C254.261 80.199 254.495 80.199 254.776 80.2927L254.612 83.2677H253.933C251.075 83.2677 249.763 85.0246 249.763 88.2807V92.0522H246.671V80.3629H249.763V82.4947C250.7 81.136 252.059 80.199 253.956 80.199ZM264.087 88.9601L264.977 91.5369C263.759 92.1928 262.916 92.4036 261.932 92.4036C259.168 92.4036 257.341 90.9512 257.341 87.742V82.8929H254.834V80.3629H257.341V76.8257H260.433V80.3629H264.251V82.8929H260.433V87.5077C260.433 88.9132 261.112 89.5223 262.143 89.5223C262.682 89.5223 263.478 89.288 264.087 88.9601ZM277.693 80.3629V92.0522H274.601V91.1387C273.617 91.9351 272.329 92.4036 270.736 92.4036C267.761 92.4036 264.997 89.8971 264.997 86.2193C264.997 82.5415 267.761 80.0116 270.736 80.0116C272.329 80.0116 273.617 80.4801 274.601 81.3V80.3629H277.693ZM271.275 89.7097C272.938 89.7097 274.601 88.3744 274.601 86.2193C274.601 84.0642 272.938 82.7055 271.275 82.7055C269.401 82.7055 267.995 84.0642 267.995 86.2193C267.995 88.3744 269.401 89.7097 271.275 89.7097ZM287.78 80.199C288.085 80.199 288.319 80.199 288.6 80.2927L288.436 83.2677H287.757C284.899 83.2677 283.587 85.0246 283.587 88.2807V92.0522H280.495V80.3629H283.587V82.4947C284.524 81.136 285.883 80.199 287.78 80.199ZM67.5023 111.985V113.039H58.6006C58.9052 114.726 60.0999 115.757 61.5288 115.757C62.4424 115.757 63.5903 115.639 64.4336 114.21L67.1978 114.796C66.1671 117.232 64.0822 118.404 61.5288 118.404C58.2258 118.404 55.5319 115.897 55.5319 112.219C55.5319 108.542 58.2258 106.012 61.5757 106.012C64.6913 106.012 67.3852 108.424 67.5023 111.985ZM61.5757 108.705C60.4044 108.705 59.0691 109.408 58.6943 110.861H64.3399C63.9416 109.361 62.8172 108.705 61.5757 108.705ZM76.6684 106.199C76.973 106.199 77.2072 106.199 77.4883 106.293L77.3244 109.268H76.645C73.7871 109.268 72.4753 111.025 72.4753 114.281V118.052H69.3831V106.363H72.4753V108.495C73.4123 107.136 74.771 106.199 76.6684 106.199ZM86.2427 106.199C86.5472 106.199 86.7815 106.199 87.0626 106.293L86.8986 109.268H86.2193C83.3614 109.268 82.0495 111.025 82.0495 114.281V118.052H78.9574V106.363H82.0495V108.495C82.9865 107.136 84.3452 106.199 86.2427 106.199ZM93.8519 106.082C97.2721 106.082 100.153 108.542 100.153 112.219C100.153 115.897 97.2721 118.357 93.8519 118.357C90.3615 118.357 87.4802 115.897 87.4802 112.219C87.4802 108.542 90.3615 106.082 93.8519 106.082ZM93.8519 115.71C95.4683 115.71 97.1549 114.398 97.1549 112.219C97.1549 110.041 95.4683 108.729 93.8519 108.729C92.1653 108.729 90.4787 110.041 90.4787 112.219C90.4787 114.398 92.1653 115.71 93.8519 115.71ZM101.034 114.96L104.149 114.328C104.313 115.522 105.344 115.921 106.562 115.921C107.71 115.921 108.389 115.405 108.389 114.749C108.389 114.328 108.108 113.906 107.101 113.695L104.712 113.203C102.603 112.758 101.409 111.563 101.409 109.877C101.409 107.628 103.236 106.012 106.187 106.012C108.952 106.012 110.873 107.441 111.271 109.479L108.319 110.064C108.202 109.127 107.382 108.448 106.094 108.448C104.852 108.448 104.501 109.057 104.501 109.596C104.501 109.97 104.641 110.369 105.555 110.58L108.343 111.189C110.404 111.634 111.411 112.922 111.411 114.492C111.411 117.068 109.326 118.404 106.281 118.404C103.704 118.404 101.338 117.396 101.034 114.96ZM123.993 106.082C127.413 106.082 130.294 108.542 130.294 112.219C130.294 115.897 127.413 118.357 123.993 118.357C120.503 118.357 117.621 115.897 117.621 112.219C117.621 108.542 120.503 106.082 123.993 106.082ZM123.993 115.71C125.609 115.71 127.296 114.398 127.296 112.219C127.296 110.041 125.609 108.729 123.993 108.729C122.306 108.729 120.62 110.041 120.62 112.219C120.62 114.398 122.306 115.71 123.993 115.71ZM143.309 106.363V118.052H140.217V116.998C139.304 117.912 138.085 118.404 136.539 118.404C133.728 118.404 131.854 116.389 131.854 113.484V106.363H134.946V112.828C134.946 114.468 135.883 115.569 137.312 115.569C139.069 115.569 140.217 114.398 140.217 111.54V106.363H143.309ZM166.041 106.012C168.477 106.012 170.585 107.886 170.585 110.743V118.052H167.517V111.376C167.517 109.806 166.509 108.846 165.221 108.846C163.581 108.846 162.504 109.97 162.504 112.43V118.052H159.411V111.376C159.411 109.806 158.404 108.846 157.116 108.846C155.476 108.846 154.445 109.97 154.445 112.43V118.052H151.353V106.363H154.445V107.323C155.265 106.503 156.413 106.012 157.936 106.012C159.505 106.012 160.934 106.691 161.777 107.932C162.738 106.738 164.167 106.012 166.041 106.012ZM184.154 111.985V113.039H175.252C175.557 114.726 176.751 115.757 178.18 115.757C179.094 115.757 180.242 115.639 181.085 114.21L183.849 114.796C182.819 117.232 180.734 118.404 178.18 118.404C174.877 118.404 172.183 115.897 172.183 112.219C172.183 108.542 174.877 106.012 178.227 106.012C181.343 106.012 184.037 108.424 184.154 111.985ZM178.227 108.705C177.056 108.705 175.721 109.408 175.346 110.861H180.991C180.593 109.361 179.469 108.705 178.227 108.705ZM189.127 118.052H186.035V101.186H189.127V118.052ZM198.719 106.012C201.53 106.012 203.404 108.026 203.404 110.931V118.052H200.312V111.587C200.312 109.947 199.375 108.846 197.946 108.846C196.189 108.846 195.041 110.017 195.041 112.875V118.052H191.949V101.186H195.041V107.417C195.954 106.503 197.173 106.012 198.719 106.012ZM211.373 106.082C214.793 106.082 217.674 108.542 217.674 112.219C217.674 115.897 214.793 118.357 211.373 118.357C207.882 118.357 205.001 115.897 205.001 112.219C205.001 108.542 207.882 106.082 211.373 106.082ZM211.373 115.71C212.989 115.71 214.676 114.398 214.676 112.219C214.676 110.041 212.989 108.729 211.373 108.729C209.686 108.729 208 110.041 208 112.219C208 114.398 209.686 115.71 211.373 115.71ZM226.824 106.199C227.128 106.199 227.363 106.199 227.644 106.293L227.48 109.268H226.8C223.943 109.268 222.631 111.025 222.631 114.281V118.052H219.539V106.363H222.631V108.495C223.568 107.136 224.926 106.199 226.824 106.199ZM230.823 101.022C231.9 101.022 232.697 101.889 232.697 102.873C232.697 103.903 231.9 104.676 230.823 104.676C229.722 104.676 228.949 103.903 228.949 102.873C228.949 101.889 229.722 101.022 230.823 101.022ZM232.369 118.052H229.277V106.363H232.369V118.052ZM247.107 106.363V118.052H244.015V117.139C243.031 117.935 241.742 118.404 240.149 118.404C237.174 118.404 234.41 115.897 234.41 112.219C234.41 108.542 237.174 106.012 240.149 106.012C241.742 106.012 243.031 106.48 244.015 107.3V106.363H247.107ZM240.688 115.71C242.351 115.71 244.015 114.374 244.015 112.219C244.015 110.064 242.351 108.705 240.688 108.705C238.814 108.705 237.409 110.064 237.409 112.219C237.409 114.374 238.814 115.71 240.688 115.71ZM248.925 114.96L252.04 114.328C252.204 115.522 253.235 115.921 254.453 115.921C255.601 115.921 256.28 115.405 256.28 114.749C256.28 114.328 255.999 113.906 254.992 113.695L252.602 113.203C250.494 112.758 249.299 111.563 249.299 109.877C249.299 107.628 251.127 106.012 254.078 106.012C256.842 106.012 258.763 107.441 259.161 109.479L256.21 110.064C256.093 109.127 255.273 108.448 253.984 108.448C252.743 108.448 252.392 109.057 252.392 109.596C252.392 109.97 252.532 110.369 253.446 110.58L256.233 111.189C258.295 111.634 259.302 112.922 259.302 114.492C259.302 117.068 257.217 118.404 254.172 118.404C251.595 118.404 249.229 117.396 248.925 114.96ZM262.369 106.691C263.447 106.691 264.22 107.534 264.22 108.495C264.22 109.502 263.447 110.275 262.369 110.275C261.292 110.275 260.519 109.502 260.519 108.495C260.519 107.534 261.292 106.691 262.369 106.691ZM262.369 114.562C263.447 114.562 264.22 115.405 264.22 116.366C264.22 117.373 263.447 118.146 262.369 118.146C261.292 118.146 260.519 117.373 260.519 116.366C260.519 115.405 261.292 114.562 262.369 114.562Z" fill="#EBF7FD"/>
<path d="M131.642 29.865L131.165 29.6922L129.546 29.1764C128.293 28.8654 127.224 28.2805 126.661 27.471C125.309 25.5286 126.639 22.5891 129.946 22.4681C132.799 22.3645 133.648 23.7861 133.833 24.3464L134.695 23.8972C134.231 22.7989 132.967 21.3057 130.173 21.3057C127.925 21.3057 126.575 22.2016 125.595 23.5738C124.729 24.7857 124.758 26.6145 125.321 27.74C125.6 28.2978 126.052 28.7741 126.676 29.1715C129.312 30.8498 134.184 30.6573 134.196 34.505C134.201 36.1438 133.535 38.4589 130.171 38.4589C127.937 38.4589 126.111 37.2101 125.555 35.1418L124.484 35.5342C124.667 36.3487 125.602 37.7333 126.182 38.2269C127.189 39.0833 128.601 39.5449 130.477 39.5449C132.352 39.5449 133.191 38.997 134.07 38.1677C134.949 37.3409 135.339 36.129 135.339 34.626C135.339 33.8337 135.519 31.2842 131.642 29.87" fill="#EBF7FD"/>
<path d="M158 28.751L158.669 30.0196L163.617 21.5367L162.178 21.5269L158 28.751Z" fill="#EBF7FD"/>
<path d="M156.764 30.5861L156.74 30.5466L151.505 21.4985L149.992 21.5084L156.142 32.0077V39.3725H157.485V32.057L157.505 32.0225L157.512 32.0101L156.848 30.7514L156.764 30.5861Z" fill="#EBF7FD"/>
<path d="M142.75 31.8691L147.935 39.3894H149.483L143.577 30.8818L142.75 31.8691Z" fill="#EBF7FD"/>
<path d="M148.746 21.5273H147.253L145.172 24.0275L145.175 24.03L144.358 25.0222L140.17 30.104V21.5273H138.711V39.3914H140.17V31.9797L146.038 24.842L148.746 21.5273Z" fill="#EBF7FD"/>
<path d="M214.1 36.7358H202.891V39.389H214.1V36.7358Z" fill="#EBF7FD"/>
<path d="M182.496 21.5337H179.359V39.3879H182.496V21.5337Z" fill="#EBF7FD"/>
<path d="M186.328 21.5337V39.3879H189.344L189.393 27.5238L199.712 39.3879H199.912L199.927 35.0465L188.001 21.5337H186.328Z" fill="#EBF7FD"/>
<path d="M197.008 28.6922L199.846 31.9797H199.952L199.967 21.5273H197.008V28.6922Z" fill="#EBF7FD"/>
<path d="M206.027 31.7058H212.6V29.1439H206.027V24.0892H213.844V21.5273H202.891V34.4503H206.027V31.7058Z" fill="#EBF7FD"/>
<path d="M169.596 36.7298V21.5337H166.656V36.7298V39.383H176.521H176.583V36.7298H176.521H169.596Z" fill="#EBF7FD"/>
<path d="M106.569 29.2896C106.715 29.1193 106.932 29.0354 107.221 29.0354C107.468 29.0354 107.655 29.0897 107.784 29.1958C107.912 29.302 107.991 29.4649 108.025 29.6821H108.462C108.435 29.3587 108.319 29.107 108.114 28.9243C107.909 28.7417 107.621 28.6504 107.246 28.6504C106.972 28.6504 106.732 28.6998 106.53 28.8009C106.327 28.9021 106.172 29.0502 106.058 29.2427C105.947 29.4377 105.891 29.6796 105.891 29.9684V31.0025C105.891 31.2913 105.945 31.5331 106.056 31.7281C106.167 31.9231 106.32 32.0712 106.52 32.1674C106.72 32.2661 106.952 32.3155 107.221 32.3155C107.645 32.3155 107.959 32.2119 108.161 32.0021C108.364 31.7923 108.465 31.469 108.465 31.0272V30.462H107.186V30.8445H108.043V31.0938C108.043 31.2592 108.016 31.4073 107.964 31.5307C107.912 31.6565 107.828 31.7528 107.712 31.8244C107.596 31.8935 107.441 31.928 107.243 31.928C106.944 31.928 106.722 31.8441 106.574 31.6738C106.426 31.5035 106.352 31.2789 106.352 31.0025V29.9733C106.352 29.687 106.426 29.4599 106.572 29.2921" fill="#EBF7FD"/>
<path d="M111.432 30.4575C111.566 30.2995 111.632 30.1095 111.632 29.8849V29.6825C111.632 29.4727 111.588 29.295 111.497 29.1469C111.408 29.0013 111.27 28.8902 111.085 28.8137C110.899 28.7372 110.66 28.7002 110.369 28.7002H109.359V32.2641H109.809V30.8598H110.398L111.255 32.2641H111.763L110.843 30.7882C111.104 30.7265 111.302 30.6179 111.432 30.4599M110.354 30.4649H109.809V29.0852H110.354C110.554 29.0852 110.714 29.1099 110.833 29.1617C110.951 29.2136 111.038 29.2827 111.089 29.3765C111.141 29.4678 111.168 29.5739 111.168 29.6924V29.8701C111.168 30.0502 111.104 30.1934 110.973 30.302C110.843 30.4106 110.635 30.4649 110.354 30.4649Z" fill="#EBF7FD"/>
<path d="M114.468 31.077C114.468 31.3287 114.404 31.5336 114.276 31.6915C114.147 31.8495 113.948 31.9285 113.676 31.9285C113.405 31.9285 113.215 31.8495 113.084 31.6915C112.953 31.5336 112.889 31.3287 112.889 31.077V28.7002H112.43V31.0844C112.43 31.4817 112.543 31.7853 112.77 31.9976C112.997 32.2098 113.301 32.316 113.676 32.316C114.051 32.316 114.36 32.2098 114.587 31.9976C114.814 31.7853 114.927 31.4817 114.927 31.0844V28.7002H114.468V31.077Z" fill="#EBF7FD"/>
<path d="M117.645 28.8137C117.459 28.7372 117.22 28.7002 116.929 28.7002H115.922V32.2641H116.371V30.8598H116.941C117.21 30.8598 117.435 30.8203 117.62 30.7413C117.805 30.6623 117.946 30.5488 118.044 30.4032C118.143 30.2576 118.192 30.0873 118.192 29.8898V29.6874C118.192 29.4776 118.148 29.2975 118.057 29.1519C117.965 29.0062 117.83 28.8952 117.645 28.8187M117.728 29.8701C117.728 30.0502 117.662 30.1934 117.533 30.302C117.403 30.4106 117.195 30.4649 116.914 30.4649H116.369V29.0852H116.914C117.114 29.0852 117.274 29.1099 117.393 29.1617C117.511 29.2136 117.598 29.2827 117.649 29.3765C117.701 29.4678 117.728 29.5739 117.728 29.6924V29.8701Z" fill="#EBF7FD"/>
<path d="M120.888 28.7931C120.686 28.6919 120.446 28.6426 120.167 28.6426C119.889 28.6426 119.654 28.6919 119.452 28.7931C119.249 28.8919 119.094 29.0399 118.98 29.2349C118.869 29.4299 118.812 29.6718 118.812 29.9605V30.9947C118.812 31.2834 118.869 31.5253 118.98 31.7203C119.091 31.9153 119.249 32.0634 119.452 32.1621C119.654 32.2608 119.891 32.3102 120.167 32.3102C120.444 32.3102 120.686 32.2608 120.888 32.1621C121.09 32.0634 121.246 31.9153 121.357 31.7178C121.468 31.5204 121.522 31.281 121.522 30.9947V29.9556C121.522 29.6668 121.468 29.4274 121.357 29.2325C121.246 29.0399 121.09 28.8919 120.888 28.7931ZM121.066 30.9897C121.066 31.2711 120.992 31.4982 120.844 31.666C120.696 31.8363 120.471 31.9202 120.17 31.9202C119.869 31.9202 119.644 31.8363 119.496 31.666C119.348 31.4957 119.274 31.2736 119.274 30.9947V29.9655C119.274 29.6792 119.348 29.4521 119.496 29.2843C119.644 29.114 119.869 29.0301 120.17 29.0301C120.471 29.0301 120.698 29.114 120.844 29.2843C120.992 29.4546 121.066 29.6792 121.066 29.9605V30.9897Z" fill="#EBF7FD"/>
<path d="M80.2656 57.7988H239.719" stroke="#EBF7FD" stroke-width="1.06479" stroke-linecap="round"/>
<circle cx="287.5" cy="32.5" r="12" stroke="white"/>
<path d="M291.477 28.3501L283.522 36.305" stroke="white" stroke-linecap="round"/>
<path d="M291.484 36.3047L283.529 28.3497" stroke="white" stroke-linecap="round"/>
</g>
<defs>
<linearGradient id="paint0_linear_803_3444" x1="331.784" y1="0.00473689" x2="-36.9546" y2="26.2531" gradientUnits="userSpaceOnUse">
<stop stop-color="#2824B4"/>
<stop offset="1" stop-color="#0058D7"/>
</linearGradient>
<linearGradient id="paint1_linear_803_3444" x1="5.89413" y1="394.441" x2="363.377" y2="44.6213" gradientUnits="userSpaceOnUse">
<stop stop-color="#0058D7"/>
<stop offset="1" stop-color="#2824B4"/>
</linearGradient>
<clipPath id="clip0_803_3444">
<path d="M0 0H270C297.614 0 320 22.3858 320 50V421.104H0V0Z" fill="white"/>
</clipPath>
</defs>
</svg>
