<svg width="320" height="90" viewBox="0 0 320 90" fill="none" xmlns="http://www.w3.org/2000/svg">
<g opacity="0.5">
<path d="M100.176 51.9048L99.1738 51.5421L95.7684 50.4558C93.1329 49.8021 90.8839 48.571 89.7005 46.8707C86.8582 42.7846 89.6544 36.6037 96.6082 36.3492C102.608 36.1297 104.394 39.1215 104.784 40.2986L106.597 39.3506C105.622 37.0411 102.964 33.8982 97.0886 33.8982C92.3583 33.8982 89.5224 35.7798 87.4594 38.6667C85.6383 41.2163 85.6971 45.0591 86.8852 47.429C87.4721 48.5996 88.4217 49.6048 89.7355 50.4399C95.2817 53.9661 105.526 53.5653 105.553 61.658C105.565 65.1047 104.162 69.9734 97.087 69.9734C92.3901 69.9734 88.5474 67.3474 87.3783 62.9988L85.1277 63.8227C85.5126 65.5358 87.4817 68.448 88.6985 69.4835C90.8171 71.2856 93.7866 72.2526 97.728 72.2526C101.669 72.2526 103.438 71.0995 105.286 69.3578C107.133 67.6194 107.957 65.0697 107.957 61.9077C107.957 60.2392 108.339 54.8791 100.179 51.9048H100.176Z" fill="#4A4F54"/>
<path d="M155.596 49.5461L157.003 52.2166L167.409 34.3739L164.383 34.3564L155.596 49.5461Z" fill="#4A4F54"/>
<path d="M152.967 53.446L152.92 53.3633L141.91 34.3372L138.724 34.3562L151.66 56.433V71.9234H154.483V56.538L154.525 56.468L154.541 56.4378L153.144 53.7911L152.967 53.446Z" fill="#4A4F54"/>
<path d="M123.505 56.1085L134.411 71.9233H137.665L125.243 54.0312L123.505 56.1085Z" fill="#4A4F54"/>
<path d="M136.13 34.3564H132.993L128.616 39.6115L128.619 39.6163L126.902 41.7015L118.093 52.3932V34.3564H115.027V71.9235H118.093V56.3377L130.439 41.3262L136.13 34.3564Z" fill="#4A4F54"/>
<path d="M273.587 66.3308H250.009V71.912H273.587V66.3308Z" fill="#4A4F54"/>
<path d="M207.102 34.3735H200.505V71.9232H207.102V34.3735Z" fill="#4A4F54"/>
<path d="M215.183 34.3735V71.9232H221.522L221.63 46.9738L243.331 71.9232H243.748L243.78 62.7918L218.7 34.3735H215.183Z" fill="#4A4F54"/>
<path d="M237.61 49.433L243.576 56.3471H243.804L243.831 34.3657H237.61V49.433Z" fill="#4A4F54"/>
<path d="M256.608 55.7681H270.428V50.3825H256.608V39.7529H273.043V34.3657H250.009V61.5434H256.608V55.7681Z" fill="#4A4F54"/>
<path d="M180.002 66.3315V34.3742H173.818V66.3315V71.9127H194.564H194.694V66.3315H194.564H180.002Z" fill="#4A4F54"/>
<path d="M47.4235 50.6805C47.7305 50.3242 48.187 50.1444 48.7946 50.1444C49.3163 50.1444 49.7107 50.2574 49.978 50.4816C50.2452 50.7059 50.4154 51.0479 50.4869 51.5044H51.4079C51.3506 50.8268 51.1057 50.294 50.6746 49.909C50.242 49.5241 49.6344 49.3301 48.8487 49.3301C48.2697 49.3301 47.7687 49.4351 47.344 49.6466C46.9193 49.8565 46.5885 50.1683 46.3531 50.5787C46.1177 50.989 46 51.498 46 52.104V54.2783C46 54.8859 46.1161 55.3932 46.3483 55.8036C46.5805 56.214 46.905 56.5225 47.3233 56.7293C47.7416 56.9361 48.2315 57.0395 48.7962 57.0395C49.6885 57.0395 50.347 56.82 50.7716 56.381C51.1963 55.942 51.4094 55.258 51.4094 54.3308V53.1426H48.7214V53.9458H50.5203V54.4707C50.5203 54.8206 50.4647 55.1276 50.3549 55.3917C50.2436 55.6557 50.067 55.8609 49.8253 56.0072C49.5819 56.1535 49.2543 56.2267 48.8407 56.2267C48.2125 56.2267 47.7432 56.0485 47.4331 55.6907C47.1229 55.3344 46.9671 54.862 46.9671 54.2767V52.1135C46.9671 51.5139 47.1197 51.0351 47.4267 50.6789L47.4235 50.6805Z" fill="#4A4F54"/>
<path d="M57.6495 53.138C57.9278 52.8055 58.0678 52.4047 58.0678 51.9339V51.5061C58.0678 51.0639 57.9724 50.6885 57.7847 50.3815C57.5954 50.0746 57.3059 49.8408 56.9178 49.6801C56.5281 49.5195 56.0271 49.4399 55.4132 49.4399H53.293V56.9346H54.2346V53.9794H55.4768L57.2757 56.9346H58.3461L56.4088 53.8298C56.9576 53.701 57.3727 53.4704 57.6511 53.1396L57.6495 53.138ZM55.3798 53.1539H54.2346V50.2527H55.3798C55.8013 50.2527 56.1369 50.3068 56.3866 50.4134C56.6363 50.5199 56.816 50.671 56.9274 50.8635C57.0371 51.0559 57.0928 51.277 57.0928 51.5267V51.9021C57.0928 52.2807 56.956 52.5845 56.6808 52.8119C56.4057 53.0409 55.973 53.1539 55.3798 53.1539Z" fill="#4A4F54"/>
<path d="M64.0529 54.4383C64.0529 54.9664 63.9177 55.3974 63.6457 55.7282C63.3737 56.0607 62.9538 56.2261 62.3828 56.2261C61.8118 56.2261 61.4094 56.0607 61.1358 55.7282C60.8607 55.3958 60.7239 54.9664 60.7239 54.4383V49.4376H59.76V54.4494C59.76 55.2845 59.9986 55.9255 60.4773 56.3708C60.9561 56.8178 61.5907 57.0404 62.3828 57.0404C63.1749 57.0404 63.8207 56.8178 64.2994 56.3708C64.7782 55.9255 65.0168 55.2845 65.0168 54.4494V49.4376H64.0529V54.4383Z" fill="#4A4F54"/>
<path d="M70.7179 49.6778C70.3282 49.5171 69.8272 49.4376 69.2132 49.4376H67.093V56.9323H68.0346V53.977H69.2339C69.7969 53.977 70.2741 53.8927 70.6638 53.7257C71.0535 53.5587 71.3509 53.3201 71.5577 53.0132C71.7645 52.7062 71.8678 52.3451 71.8678 51.9316V51.5037C71.8678 51.0616 71.7724 50.6862 71.5847 50.3792C71.3954 50.0723 71.106 49.8384 70.7179 49.6778ZM70.8944 51.8998C70.8944 52.2783 70.7576 52.5821 70.4825 52.8096C70.2073 53.0386 69.7747 53.1515 69.1814 53.1515H68.0362V50.2504H69.1814C69.6029 50.2504 69.9385 50.3045 70.1882 50.411C70.4379 50.5176 70.6177 50.6687 70.729 50.8612C70.8388 51.0536 70.8944 51.2747 70.8944 51.5244V51.8998Z" fill="#4A4F54"/>
<path d="M77.5598 49.6466C77.1351 49.4366 76.6293 49.3301 76.044 49.3301C75.4587 49.3301 74.964 49.4351 74.5393 49.6466C74.1146 49.8565 73.7838 50.1683 73.5484 50.5787C73.313 50.989 73.1953 51.498 73.1953 52.104V54.2783C73.1953 54.8859 73.313 55.3932 73.5484 55.8036C73.7838 56.214 74.1146 56.5225 74.5393 56.7293C74.964 56.9361 75.465 57.0395 76.044 57.0395C76.6229 57.0395 77.1351 56.9361 77.5598 56.7293C77.9844 56.5225 78.3121 56.2124 78.5443 55.7972C78.7765 55.3837 78.8927 54.8763 78.8927 54.2767V52.0929C78.8927 51.4869 78.7765 50.9795 78.5443 50.5723C78.3121 50.1651 77.9844 49.8565 77.5598 49.6466ZM77.9288 54.2671C77.9288 54.8604 77.7729 55.3344 77.4627 55.6907C77.1526 56.047 76.6786 56.2267 76.044 56.2267C75.4094 56.2267 74.9354 56.0485 74.6252 55.6907C74.3151 55.3344 74.1592 54.862 74.1592 54.2767V52.1135C74.1592 51.5139 74.3151 51.0351 74.6252 50.6789C74.9354 50.3226 75.4078 50.1428 76.044 50.1428C76.6802 50.1428 77.1526 50.321 77.4627 50.6789C77.7729 51.0367 77.9288 51.5107 77.9288 52.1024V54.2655V54.2671Z" fill="#4A4F54"/>
<path d="M122.684 17.5487H126.846C127.793 17.5487 128.549 17.8262 129.104 18.356C129.659 18.8858 129.949 19.5921 129.949 20.4625C129.949 21.3581 129.659 22.077 129.079 22.6068C128.499 23.1492 127.729 23.4141 126.758 23.4141H124.765V25.9999H122.684V17.5487ZM124.765 21.6734H126.607C127.01 21.6734 127.326 21.5725 127.553 21.3581C127.78 21.1436 127.906 20.8535 127.906 20.4877C127.906 20.1471 127.78 19.8696 127.553 19.6552C127.313 19.4408 126.998 19.3273 126.607 19.3273H124.765V21.6734ZM134.151 19.5039C135.109 19.5039 135.929 19.8192 136.61 20.4373C137.279 21.0679 137.619 21.8626 137.619 22.8339C137.619 23.8177 137.279 24.625 136.61 25.2431C135.929 25.8737 135.109 26.1765 134.151 26.1765C133.167 26.1765 132.334 25.8737 131.653 25.2431C130.972 24.625 130.644 23.8177 130.644 22.8339C130.644 21.8626 130.972 21.0679 131.653 20.4373C132.334 19.8192 133.167 19.5039 134.151 19.5039ZM134.151 24.4736C134.554 24.4736 134.92 24.3223 135.223 24.0195C135.525 23.7168 135.677 23.3132 135.677 22.8339C135.677 22.3545 135.513 21.9635 135.21 21.6608C134.907 21.3581 134.554 21.1941 134.151 21.1941C133.722 21.1941 133.356 21.3581 133.053 21.6608C132.738 21.9635 132.586 22.3545 132.586 22.8339C132.586 23.3132 132.738 23.7168 133.041 24.0195C133.343 24.3223 133.722 24.4736 134.151 24.4736ZM147.733 19.6678L145.702 26.0125H143.949L142.814 22.5816L141.666 26.0125H139.912L137.882 19.6678H139.862L140.896 23.0735L142.095 19.6678H143.52L144.718 23.0861L145.753 19.6678H147.733ZM154.622 22.8339V23.351H149.98C150.056 23.7294 150.22 24.0321 150.472 24.2466C150.712 24.4736 151.002 24.5745 151.343 24.5745C151.973 24.5745 152.415 24.3349 152.692 23.8429L154.483 24.2087C154.206 24.8647 153.802 25.3692 153.26 25.6972C152.718 26.0251 152.074 26.1891 151.343 26.1891C150.409 26.1891 149.615 25.8864 148.971 25.2557C148.315 24.625 148 23.8177 148 22.8339C148 21.8626 148.315 21.0553 148.971 20.4246C149.615 19.794 150.409 19.4786 151.355 19.4786C152.263 19.4786 153.033 19.794 153.664 20.3994C154.282 21.0175 154.597 21.8248 154.622 22.8339ZM151.355 21.1184C151.053 21.1184 150.788 21.2067 150.535 21.3833C150.283 21.5599 150.107 21.8121 150.018 22.1149H152.629C152.528 21.7869 152.377 21.5473 152.15 21.3707C151.923 21.2067 151.658 21.1184 151.355 21.1184ZM159.872 19.5795C160.036 19.5795 160.187 19.6048 160.326 19.63L160.238 21.6482H159.872C158.409 21.6482 157.69 22.4428 157.69 24.0195V25.9999H155.672V19.6678H157.69V20.8787C158.207 20.021 158.939 19.5795 159.872 19.5795ZM167.347 22.8339V23.351H162.705C162.781 23.7294 162.945 24.0321 163.197 24.2466C163.436 24.4736 163.727 24.5745 164.067 24.5745C164.698 24.5745 165.139 24.3349 165.417 23.8429L167.208 24.2087C166.93 24.8647 166.527 25.3692 165.984 25.6972C165.442 26.0251 164.799 26.1891 164.067 26.1891C163.134 26.1891 162.339 25.8864 161.696 25.2557C161.04 24.625 160.725 23.8177 160.725 22.8339C160.725 21.8626 161.04 21.0553 161.696 20.4246C162.339 19.794 163.134 19.4786 164.08 19.4786C164.988 19.4786 165.757 19.794 166.388 20.3994C167.006 21.0175 167.321 21.8248 167.347 22.8339ZM164.08 21.1184C163.777 21.1184 163.512 21.2067 163.26 21.3833C163.008 21.5599 162.831 21.8121 162.743 22.1149H165.354C165.253 21.7869 165.101 21.5473 164.874 21.3707C164.647 21.2067 164.383 21.1184 164.08 21.1184ZM175.056 16.9181V25.9999H173.038V25.4953C172.521 25.962 171.865 26.1891 171.07 26.1891C170.212 26.1891 169.481 25.8864 168.875 25.2557C168.27 24.625 167.98 23.8177 167.98 22.8339C167.98 21.8626 168.27 21.0553 168.875 20.4246C169.481 19.794 170.212 19.4786 171.07 19.4786C171.865 19.4786 172.521 19.7183 173.038 20.1724V16.9181H175.056ZM171.486 24.4736C171.903 24.4736 172.269 24.3223 172.571 24.0195C172.874 23.7168 173.038 23.3132 173.038 22.8339C173.038 22.3671 172.874 21.9761 172.571 21.6608C172.269 21.3581 171.903 21.1941 171.486 21.1941C171.032 21.1941 170.667 21.3581 170.389 21.6608C170.099 21.9635 169.96 22.3545 169.96 22.8339C169.96 23.3258 170.099 23.7168 170.389 24.0195C170.667 24.3223 171.032 24.4736 171.486 24.4736ZM183.431 19.4786C184.289 19.4786 185.008 19.794 185.613 20.4246C186.219 21.0553 186.522 21.8626 186.522 22.8339C186.522 23.8177 186.219 24.625 185.613 25.2557C185.008 25.8864 184.289 26.1891 183.431 26.1891C182.624 26.1891 181.968 25.962 181.464 25.4953V25.9999H179.445V16.9181H181.464V20.1724C181.968 19.7183 182.624 19.4786 183.431 19.4786ZM183.015 24.4736C183.457 24.4736 183.822 24.3223 184.112 24.0195C184.39 23.7168 184.541 23.3258 184.541 22.8339C184.541 22.3545 184.39 21.9635 184.112 21.6608C183.822 21.3581 183.457 21.1941 183.015 21.1941C182.586 21.1941 182.22 21.3581 181.918 21.6608C181.615 21.9761 181.464 22.3671 181.464 22.8339C181.464 23.3132 181.615 23.7168 181.918 24.0195C182.22 24.3223 182.586 24.4736 183.015 24.4736ZM194.14 19.6552L190.482 28.1442H188.3L189.322 25.7854L186.698 19.6552H188.867L190.368 23.351L191.97 19.6552H194.14ZM195.774 19.7435C196.102 19.7435 196.366 19.857 196.594 20.0841C196.821 20.3111 196.934 20.576 196.934 20.8787C196.934 21.2067 196.821 21.4716 196.606 21.686C196.379 21.9131 196.102 22.014 195.774 22.014C195.446 22.014 195.168 21.9131 194.954 21.686C194.727 21.4716 194.626 21.2067 194.626 20.8787C194.626 20.576 194.727 20.3111 194.954 20.0841C195.168 19.857 195.446 19.7435 195.774 19.7435ZM195.774 23.7925C196.102 23.7925 196.366 23.906 196.594 24.1331C196.821 24.3601 196.934 24.625 196.934 24.9277C196.934 25.2557 196.821 25.5206 196.606 25.735C196.379 25.962 196.102 26.0629 195.774 26.0629C195.446 26.0629 195.168 25.962 194.954 25.7476C194.727 25.5332 194.626 25.2557 194.626 24.9277C194.626 24.625 194.727 24.3601 194.954 24.1331C195.168 23.906 195.446 23.7925 195.774 23.7925Z" fill="#4A4F54"/>
</g>
</svg>
